<svg xmlns="http://www.w3.org/2000/svg" version="1.1" xmlns:xlink="http://www.w3.org/1999/xlink" xmlns:svgjs="http://svgjs.com/svgjs" width="1920" height="1080" preserveAspectRatio="none" viewBox="0 0 1920 1080"><g mask="url(&quot;#SvgjsMask1001&quot;)" fill="none"><path d="M111.52 113.09L184.27 155.09L184.27 239.09L111.52 281.09L38.77 239.09L38.77 155.09zM111.52 869.09L184.27 911.09L184.27 995.09L111.52 1037.09L38.77 995.09L38.77 911.09zM111.52 1121.09L184.27 1163.09L184.27 1247.09L111.52 1289.09L38.77 1247.09L38.77 1163.09zM257.01 617.09L329.76 659.09L329.76 743.09L257.01 785.09L184.27 743.09L184.27 659.09zM329.76 239.09L402.51 281.09L402.51 365.09L329.76 407.09L257.01 365.09L257.01 281.09zM402.51 365.09L475.26 407.09L475.26 491.09L402.51 533.09L329.76 491.09L329.76 407.09zM402.51 1121.09L475.26 1163.09L475.26 1247.09L402.51 1289.09L329.76 1247.09L329.76 1163.09zM475.26 743.09L548.01 785.09L548.01 869.09L475.26 911.09L402.51 869.09L402.51 785.09zM693.5 617.09L766.25 659.09L766.25 743.09L693.5 785.09L620.76 743.09L620.76 659.09zM839 113.09L911.75 155.09L911.75 239.09L839 281.09L766.25 239.09L766.25 155.09zM839 1121.09L911.75 1163.09L911.75 1247.09L839 1289.09L766.25 1247.09L766.25 1163.09zM984.5 113.09L1057.24 155.09L1057.24 239.09L984.5 281.09L911.75 239.09L911.75 155.09zM911.75 239.09L984.5 281.09L984.5 365.09L911.75 407.09L839 365.09L839 281.09zM984.5 617.09L1057.24 659.09L1057.24 743.09L984.5 785.09L911.75 743.09L911.75 659.09zM911.75 743.09L984.5 785.09L984.5 869.09L911.75 911.09L839 869.09L839 785.09zM984.5 1121.09L1057.24 1163.09L1057.24 1247.09L984.5 1289.09L911.75 1247.09L911.75 1163.09zM1057.24 239.09L1129.99 281.09L1129.99 365.09L1057.24 407.09L984.5 365.09L984.5 281.09zM1057.24 491.09L1129.99 533.09L1129.99 617.09L1057.24 659.09L984.5 617.09L984.5 533.09zM1129.99 1121.09L1202.74 1163.09L1202.74 1247.09L1129.99 1289.09L1057.24 1247.09L1057.24 1163.09zM1202.74 239.09L1275.49 281.09L1275.49 365.09L1202.74 407.09L1129.99 365.09L1129.99 281.09zM1275.49 365.09L1348.24 407.09L1348.24 491.09L1275.49 533.09L1202.74 491.09L1202.74 407.09zM1275.49 869.09L1348.24 911.09L1348.24 995.09L1275.49 1037.09L1202.74 995.09L1202.74 911.09zM1420.99 365.09L1493.73 407.09L1493.73 491.09L1420.99 533.09L1348.24 491.09L1348.24 407.09zM1348.24 491.09L1420.99 533.09L1420.99 617.09L1348.24 659.09L1275.49 617.09L1275.49 533.09zM1420.99 869.09L1493.73 911.09L1493.73 995.09L1420.99 1037.09L1348.24 995.09L1348.24 911.09zM1348.24 995.09L1420.99 1037.09L1420.99 1121.09L1348.24 1163.09L1275.49 1121.09L1275.49 1037.09zM1493.73 491.09L1566.48 533.09L1566.48 617.09L1493.73 659.09L1420.99 617.09L1420.99 533.09zM1566.48 869.09L1639.23 911.09L1639.23 995.09L1566.48 1037.09L1493.73 995.09L1493.73 911.09zM1639.23 -12.91L1711.98 29.09L1711.98 113.09L1639.23 155.09L1566.48 113.09L1566.48 29.09zM1639.23 995.09L1711.98 1037.09L1711.98 1121.09L1639.23 1163.09L1566.48 1121.09L1566.48 1037.09zM1711.98 1121.09L1784.73 1163.09L1784.73 1247.09L1711.98 1289.09L1639.23 1247.09L1639.23 1163.09zM1784.73 -12.91L1857.47 29.09L1857.47 113.09L1784.73 155.09L1711.98 113.09L1711.98 29.09zM1784.73 491.09L1857.47 533.09L1857.47 617.09L1784.73 659.09L1711.98 617.09L1711.98 533.09zM1857.47 617.09L1930.22 659.09L1930.22 743.09L1857.47 785.09L1784.73 743.09L1784.73 659.09zM1930.22 239.09L2002.97 281.09L2002.97 365.09L1930.22 407.09L1857.47 365.09L1857.47 281.09zM1930.22 995.09L2002.97 1037.09L2002.97 1121.09L1930.22 1163.09L1857.47 1121.09L1857.47 1037.09z" stroke="rgba(65, 205, 255, 1)" stroke-width="2"></path><path d="M103.12 113.09 a8.4 8.4 0 1 0 16.8 0 a8.4 8.4 0 1 0 -16.8 0zM175.87 155.09 a8.4 8.4 0 1 0 16.8 0 a8.4 8.4 0 1 0 -16.8 0zM175.87 239.09 a8.4 8.4 0 1 0 16.8 0 a8.4 8.4 0 1 0 -16.8 0zM103.12 281.09 a8.4 8.4 0 1 0 16.8 0 a8.4 8.4 0 1 0 -16.8 0zM30.37 239.09 a8.4 8.4 0 1 0 16.8 0 a8.4 8.4 0 1 0 -16.8 0zM30.37 155.09 a8.4 8.4 0 1 0 16.8 0 a8.4 8.4 0 1 0 -16.8 0zM103.12 869.09 a8.4 8.4 0 1 0 16.8 0 a8.4 8.4 0 1 0 -16.8 0zM175.87 911.09 a8.4 8.4 0 1 0 16.8 0 a8.4 8.4 0 1 0 -16.8 0zM175.87 995.09 a8.4 8.4 0 1 0 16.8 0 a8.4 8.4 0 1 0 -16.8 0zM103.12 1037.09 a8.4 8.4 0 1 0 16.8 0 a8.4 8.4 0 1 0 -16.8 0zM30.37 995.09 a8.4 8.4 0 1 0 16.8 0 a8.4 8.4 0 1 0 -16.8 0zM30.37 911.09 a8.4 8.4 0 1 0 16.8 0 a8.4 8.4 0 1 0 -16.8 0zM103.12 1121.09 a8.4 8.4 0 1 0 16.8 0 a8.4 8.4 0 1 0 -16.8 0zM175.87 1163.09 a8.4 8.4 0 1 0 16.8 0 a8.4 8.4 0 1 0 -16.8 0zM175.87 1247.09 a8.4 8.4 0 1 0 16.8 0 a8.4 8.4 0 1 0 -16.8 0zM103.12 1289.09 a8.4 8.4 0 1 0 16.8 0 a8.4 8.4 0 1 0 -16.8 0zM30.37 1247.09 a8.4 8.4 0 1 0 16.8 0 a8.4 8.4 0 1 0 -16.8 0zM30.37 1163.09 a8.4 8.4 0 1 0 16.8 0 a8.4 8.4 0 1 0 -16.8 0zM248.61 617.09 a8.4 8.4 0 1 0 16.8 0 a8.4 8.4 0 1 0 -16.8 0zM321.36 659.09 a8.4 8.4 0 1 0 16.8 0 a8.4 8.4 0 1 0 -16.8 0zM321.36 743.09 a8.4 8.4 0 1 0 16.8 0 a8.4 8.4 0 1 0 -16.8 0zM248.61 785.09 a8.4 8.4 0 1 0 16.8 0 a8.4 8.4 0 1 0 -16.8 0zM175.87 743.09 a8.4 8.4 0 1 0 16.8 0 a8.4 8.4 0 1 0 -16.8 0zM175.87 659.09 a8.4 8.4 0 1 0 16.8 0 a8.4 8.4 0 1 0 -16.8 0zM321.36 239.09 a8.4 8.4 0 1 0 16.8 0 a8.4 8.4 0 1 0 -16.8 0zM394.11 281.09 a8.4 8.4 0 1 0 16.8 0 a8.4 8.4 0 1 0 -16.8 0zM394.11 365.09 a8.4 8.4 0 1 0 16.8 0 a8.4 8.4 0 1 0 -16.8 0zM321.36 407.09 a8.4 8.4 0 1 0 16.8 0 a8.4 8.4 0 1 0 -16.8 0zM248.61 365.09 a8.4 8.4 0 1 0 16.8 0 a8.4 8.4 0 1 0 -16.8 0zM248.61 281.09 a8.4 8.4 0 1 0 16.8 0 a8.4 8.4 0 1 0 -16.8 0zM466.86 407.09 a8.4 8.4 0 1 0 16.8 0 a8.4 8.4 0 1 0 -16.8 0zM466.86 491.09 a8.4 8.4 0 1 0 16.8 0 a8.4 8.4 0 1 0 -16.8 0zM394.11 533.09 a8.4 8.4 0 1 0 16.8 0 a8.4 8.4 0 1 0 -16.8 0zM321.36 491.09 a8.4 8.4 0 1 0 16.8 0 a8.4 8.4 0 1 0 -16.8 0zM394.11 1121.09 a8.4 8.4 0 1 0 16.8 0 a8.4 8.4 0 1 0 -16.8 0zM466.86 1163.09 a8.4 8.4 0 1 0 16.8 0 a8.4 8.4 0 1 0 -16.8 0zM466.86 1247.09 a8.4 8.4 0 1 0 16.8 0 a8.4 8.4 0 1 0 -16.8 0zM394.11 1289.09 a8.4 8.4 0 1 0 16.8 0 a8.4 8.4 0 1 0 -16.8 0zM321.36 1247.09 a8.4 8.4 0 1 0 16.8 0 a8.4 8.4 0 1 0 -16.8 0zM321.36 1163.09 a8.4 8.4 0 1 0 16.8 0 a8.4 8.4 0 1 0 -16.8 0zM466.86 743.09 a8.4 8.4 0 1 0 16.8 0 a8.4 8.4 0 1 0 -16.8 0zM539.61 785.09 a8.4 8.4 0 1 0 16.8 0 a8.4 8.4 0 1 0 -16.8 0zM539.61 869.09 a8.4 8.4 0 1 0 16.8 0 a8.4 8.4 0 1 0 -16.8 0zM466.86 911.09 a8.4 8.4 0 1 0 16.8 0 a8.4 8.4 0 1 0 -16.8 0zM394.11 869.09 a8.4 8.4 0 1 0 16.8 0 a8.4 8.4 0 1 0 -16.8 0zM394.11 785.09 a8.4 8.4 0 1 0 16.8 0 a8.4 8.4 0 1 0 -16.8 0zM685.1 617.09 a8.4 8.4 0 1 0 16.8 0 a8.4 8.4 0 1 0 -16.8 0zM757.85 659.09 a8.4 8.4 0 1 0 16.8 0 a8.4 8.4 0 1 0 -16.8 0zM757.85 743.09 a8.4 8.4 0 1 0 16.8 0 a8.4 8.4 0 1 0 -16.8 0zM685.1 785.09 a8.4 8.4 0 1 0 16.8 0 a8.4 8.4 0 1 0 -16.8 0zM612.36 743.09 a8.4 8.4 0 1 0 16.8 0 a8.4 8.4 0 1 0 -16.8 0zM612.36 659.09 a8.4 8.4 0 1 0 16.8 0 a8.4 8.4 0 1 0 -16.8 0zM830.6 113.09 a8.4 8.4 0 1 0 16.8 0 a8.4 8.4 0 1 0 -16.8 0zM903.35 155.09 a8.4 8.4 0 1 0 16.8 0 a8.4 8.4 0 1 0 -16.8 0zM903.35 239.09 a8.4 8.4 0 1 0 16.8 0 a8.4 8.4 0 1 0 -16.8 0zM830.6 281.09 a8.4 8.4 0 1 0 16.8 0 a8.4 8.4 0 1 0 -16.8 0zM757.85 239.09 a8.4 8.4 0 1 0 16.8 0 a8.4 8.4 0 1 0 -16.8 0zM757.85 155.09 a8.4 8.4 0 1 0 16.8 0 a8.4 8.4 0 1 0 -16.8 0zM830.6 1121.09 a8.4 8.4 0 1 0 16.8 0 a8.4 8.4 0 1 0 -16.8 0zM903.35 1163.09 a8.4 8.4 0 1 0 16.8 0 a8.4 8.4 0 1 0 -16.8 0zM903.35 1247.09 a8.4 8.4 0 1 0 16.8 0 a8.4 8.4 0 1 0 -16.8 0zM830.6 1289.09 a8.4 8.4 0 1 0 16.8 0 a8.4 8.4 0 1 0 -16.8 0zM757.85 1247.09 a8.4 8.4 0 1 0 16.8 0 a8.4 8.4 0 1 0 -16.8 0zM757.85 1163.09 a8.4 8.4 0 1 0 16.8 0 a8.4 8.4 0 1 0 -16.8 0zM976.1 113.09 a8.4 8.4 0 1 0 16.8 0 a8.4 8.4 0 1 0 -16.8 0zM1048.84 155.09 a8.4 8.4 0 1 0 16.8 0 a8.4 8.4 0 1 0 -16.8 0zM1048.84 239.09 a8.4 8.4 0 1 0 16.8 0 a8.4 8.4 0 1 0 -16.8 0zM976.1 281.09 a8.4 8.4 0 1 0 16.8 0 a8.4 8.4 0 1 0 -16.8 0zM976.1 365.09 a8.4 8.4 0 1 0 16.8 0 a8.4 8.4 0 1 0 -16.8 0zM903.35 407.09 a8.4 8.4 0 1 0 16.8 0 a8.4 8.4 0 1 0 -16.8 0zM830.6 365.09 a8.4 8.4 0 1 0 16.8 0 a8.4 8.4 0 1 0 -16.8 0zM976.1 617.09 a8.4 8.4 0 1 0 16.8 0 a8.4 8.4 0 1 0 -16.8 0zM1048.84 659.09 a8.4 8.4 0 1 0 16.8 0 a8.4 8.4 0 1 0 -16.8 0zM1048.84 743.09 a8.4 8.4 0 1 0 16.8 0 a8.4 8.4 0 1 0 -16.8 0zM976.1 785.09 a8.4 8.4 0 1 0 16.8 0 a8.4 8.4 0 1 0 -16.8 0zM903.35 743.09 a8.4 8.4 0 1 0 16.8 0 a8.4 8.4 0 1 0 -16.8 0zM903.35 659.09 a8.4 8.4 0 1 0 16.8 0 a8.4 8.4 0 1 0 -16.8 0zM976.1 869.09 a8.4 8.4 0 1 0 16.8 0 a8.4 8.4 0 1 0 -16.8 0zM903.35 911.09 a8.4 8.4 0 1 0 16.8 0 a8.4 8.4 0 1 0 -16.8 0zM830.6 869.09 a8.4 8.4 0 1 0 16.8 0 a8.4 8.4 0 1 0 -16.8 0zM830.6 785.09 a8.4 8.4 0 1 0 16.8 0 a8.4 8.4 0 1 0 -16.8 0zM976.1 1121.09 a8.4 8.4 0 1 0 16.8 0 a8.4 8.4 0 1 0 -16.8 0zM1048.84 1163.09 a8.4 8.4 0 1 0 16.8 0 a8.4 8.4 0 1 0 -16.8 0zM1048.84 1247.09 a8.4 8.4 0 1 0 16.8 0 a8.4 8.4 0 1 0 -16.8 0zM976.1 1289.09 a8.4 8.4 0 1 0 16.8 0 a8.4 8.4 0 1 0 -16.8 0zM1121.59 281.09 a8.4 8.4 0 1 0 16.8 0 a8.4 8.4 0 1 0 -16.8 0zM1121.59 365.09 a8.4 8.4 0 1 0 16.8 0 a8.4 8.4 0 1 0 -16.8 0zM1048.84 407.09 a8.4 8.4 0 1 0 16.8 0 a8.4 8.4 0 1 0 -16.8 0zM1048.84 491.09 a8.4 8.4 0 1 0 16.8 0 a8.4 8.4 0 1 0 -16.8 0zM1121.59 533.09 a8.4 8.4 0 1 0 16.8 0 a8.4 8.4 0 1 0 -16.8 0zM1121.59 617.09 a8.4 8.4 0 1 0 16.8 0 a8.4 8.4 0 1 0 -16.8 0zM976.1 533.09 a8.4 8.4 0 1 0 16.8 0 a8.4 8.4 0 1 0 -16.8 0zM1121.59 1121.09 a8.4 8.4 0 1 0 16.8 0 a8.4 8.4 0 1 0 -16.8 0zM1194.34 1163.09 a8.4 8.4 0 1 0 16.8 0 a8.4 8.4 0 1 0 -16.8 0zM1194.34 1247.09 a8.4 8.4 0 1 0 16.8 0 a8.4 8.4 0 1 0 -16.8 0zM1121.59 1289.09 a8.4 8.4 0 1 0 16.8 0 a8.4 8.4 0 1 0 -16.8 0zM1194.34 239.09 a8.4 8.4 0 1 0 16.8 0 a8.4 8.4 0 1 0 -16.8 0zM1267.09 281.09 a8.4 8.4 0 1 0 16.8 0 a8.4 8.4 0 1 0 -16.8 0zM1267.09 365.09 a8.4 8.4 0 1 0 16.8 0 a8.4 8.4 0 1 0 -16.8 0zM1194.34 407.09 a8.4 8.4 0 1 0 16.8 0 a8.4 8.4 0 1 0 -16.8 0zM1339.84 407.09 a8.4 8.4 0 1 0 16.8 0 a8.4 8.4 0 1 0 -16.8 0zM1339.84 491.09 a8.4 8.4 0 1 0 16.8 0 a8.4 8.4 0 1 0 -16.8 0zM1267.09 533.09 a8.4 8.4 0 1 0 16.8 0 a8.4 8.4 0 1 0 -16.8 0zM1194.34 491.09 a8.4 8.4 0 1 0 16.8 0 a8.4 8.4 0 1 0 -16.8 0zM1267.09 869.09 a8.4 8.4 0 1 0 16.8 0 a8.4 8.4 0 1 0 -16.8 0zM1339.84 911.09 a8.4 8.4 0 1 0 16.8 0 a8.4 8.4 0 1 0 -16.8 0zM1339.84 995.09 a8.4 8.4 0 1 0 16.8 0 a8.4 8.4 0 1 0 -16.8 0zM1267.09 1037.09 a8.4 8.4 0 1 0 16.8 0 a8.4 8.4 0 1 0 -16.8 0zM1194.34 995.09 a8.4 8.4 0 1 0 16.8 0 a8.4 8.4 0 1 0 -16.8 0zM1194.34 911.09 a8.4 8.4 0 1 0 16.8 0 a8.4 8.4 0 1 0 -16.8 0zM1412.59 365.09 a8.4 8.4 0 1 0 16.8 0 a8.4 8.4 0 1 0 -16.8 0zM1485.33 407.09 a8.4 8.4 0 1 0 16.8 0 a8.4 8.4 0 1 0 -16.8 0zM1485.33 491.09 a8.4 8.4 0 1 0 16.8 0 a8.4 8.4 0 1 0 -16.8 0zM1412.59 533.09 a8.4 8.4 0 1 0 16.8 0 a8.4 8.4 0 1 0 -16.8 0zM1412.59 617.09 a8.4 8.4 0 1 0 16.8 0 a8.4 8.4 0 1 0 -16.8 0zM1339.84 659.09 a8.4 8.4 0 1 0 16.8 0 a8.4 8.4 0 1 0 -16.8 0zM1267.09 617.09 a8.4 8.4 0 1 0 16.8 0 a8.4 8.4 0 1 0 -16.8 0zM1412.59 869.09 a8.4 8.4 0 1 0 16.8 0 a8.4 8.4 0 1 0 -16.8 0zM1485.33 911.09 a8.4 8.4 0 1 0 16.8 0 a8.4 8.4 0 1 0 -16.8 0zM1485.33 995.09 a8.4 8.4 0 1 0 16.8 0 a8.4 8.4 0 1 0 -16.8 0zM1412.59 1037.09 a8.4 8.4 0 1 0 16.8 0 a8.4 8.4 0 1 0 -16.8 0zM1412.59 1121.09 a8.4 8.4 0 1 0 16.8 0 a8.4 8.4 0 1 0 -16.8 0zM1339.84 1163.09 a8.4 8.4 0 1 0 16.8 0 a8.4 8.4 0 1 0 -16.8 0zM1267.09 1121.09 a8.4 8.4 0 1 0 16.8 0 a8.4 8.4 0 1 0 -16.8 0zM1558.08 533.09 a8.4 8.4 0 1 0 16.8 0 a8.4 8.4 0 1 0 -16.8 0zM1558.08 617.09 a8.4 8.4 0 1 0 16.8 0 a8.4 8.4 0 1 0 -16.8 0zM1485.33 659.09 a8.4 8.4 0 1 0 16.8 0 a8.4 8.4 0 1 0 -16.8 0zM1558.08 869.09 a8.4 8.4 0 1 0 16.8 0 a8.4 8.4 0 1 0 -16.8 0zM1630.83 911.09 a8.4 8.4 0 1 0 16.8 0 a8.4 8.4 0 1 0 -16.8 0zM1630.83 995.09 a8.4 8.4 0 1 0 16.8 0 a8.4 8.4 0 1 0 -16.8 0zM1558.08 1037.09 a8.4 8.4 0 1 0 16.8 0 a8.4 8.4 0 1 0 -16.8 0zM1630.83 -12.91 a8.4 8.4 0 1 0 16.8 0 a8.4 8.4 0 1 0 -16.8 0zM1703.58 29.09 a8.4 8.4 0 1 0 16.8 0 a8.4 8.4 0 1 0 -16.8 0zM1703.58 113.09 a8.4 8.4 0 1 0 16.8 0 a8.4 8.4 0 1 0 -16.8 0zM1630.83 155.09 a8.4 8.4 0 1 0 16.8 0 a8.4 8.4 0 1 0 -16.8 0zM1558.08 113.09 a8.4 8.4 0 1 0 16.8 0 a8.4 8.4 0 1 0 -16.8 0zM1558.08 29.09 a8.4 8.4 0 1 0 16.8 0 a8.4 8.4 0 1 0 -16.8 0zM1703.58 1037.09 a8.4 8.4 0 1 0 16.8 0 a8.4 8.4 0 1 0 -16.8 0zM1703.58 1121.09 a8.4 8.4 0 1 0 16.8 0 a8.4 8.4 0 1 0 -16.8 0zM1630.83 1163.09 a8.4 8.4 0 1 0 16.8 0 a8.4 8.4 0 1 0 -16.8 0zM1558.08 1121.09 a8.4 8.4 0 1 0 16.8 0 a8.4 8.4 0 1 0 -16.8 0zM1776.33 1163.09 a8.4 8.4 0 1 0 16.8 0 a8.4 8.4 0 1 0 -16.8 0zM1776.33 1247.09 a8.4 8.4 0 1 0 16.8 0 a8.4 8.4 0 1 0 -16.8 0zM1703.58 1289.09 a8.4 8.4 0 1 0 16.8 0 a8.4 8.4 0 1 0 -16.8 0zM1630.83 1247.09 a8.4 8.4 0 1 0 16.8 0 a8.4 8.4 0 1 0 -16.8 0zM1776.33 -12.91 a8.4 8.4 0 1 0 16.8 0 a8.4 8.4 0 1 0 -16.8 0zM1849.07 29.09 a8.4 8.4 0 1 0 16.8 0 a8.4 8.4 0 1 0 -16.8 0zM1849.07 113.09 a8.4 8.4 0 1 0 16.8 0 a8.4 8.4 0 1 0 -16.8 0zM1776.33 155.09 a8.4 8.4 0 1 0 16.8 0 a8.4 8.4 0 1 0 -16.8 0zM1776.33 491.09 a8.4 8.4 0 1 0 16.8 0 a8.4 8.4 0 1 0 -16.8 0zM1849.07 533.09 a8.4 8.4 0 1 0 16.8 0 a8.4 8.4 0 1 0 -16.8 0zM1849.07 617.09 a8.4 8.4 0 1 0 16.8 0 a8.4 8.4 0 1 0 -16.8 0zM1776.33 659.09 a8.4 8.4 0 1 0 16.8 0 a8.4 8.4 0 1 0 -16.8 0zM1703.58 617.09 a8.4 8.4 0 1 0 16.8 0 a8.4 8.4 0 1 0 -16.8 0zM1703.58 533.09 a8.4 8.4 0 1 0 16.8 0 a8.4 8.4 0 1 0 -16.8 0zM1921.82 659.09 a8.4 8.4 0 1 0 16.8 0 a8.4 8.4 0 1 0 -16.8 0zM1921.82 743.09 a8.4 8.4 0 1 0 16.8 0 a8.4 8.4 0 1 0 -16.8 0zM1849.07 785.09 a8.4 8.4 0 1 0 16.8 0 a8.4 8.4 0 1 0 -16.8 0zM1776.33 743.09 a8.4 8.4 0 1 0 16.8 0 a8.4 8.4 0 1 0 -16.8 0zM1921.82 239.09 a8.4 8.4 0 1 0 16.8 0 a8.4 8.4 0 1 0 -16.8 0zM1994.57 281.09 a8.4 8.4 0 1 0 16.8 0 a8.4 8.4 0 1 0 -16.8 0zM1994.57 365.09 a8.4 8.4 0 1 0 16.8 0 a8.4 8.4 0 1 0 -16.8 0zM1921.82 407.09 a8.4 8.4 0 1 0 16.8 0 a8.4 8.4 0 1 0 -16.8 0zM1849.07 365.09 a8.4 8.4 0 1 0 16.8 0 a8.4 8.4 0 1 0 -16.8 0zM1849.07 281.09 a8.4 8.4 0 1 0 16.8 0 a8.4 8.4 0 1 0 -16.8 0zM1921.82 995.09 a8.4 8.4 0 1 0 16.8 0 a8.4 8.4 0 1 0 -16.8 0zM1994.57 1037.09 a8.4 8.4 0 1 0 16.8 0 a8.4 8.4 0 1 0 -16.8 0zM1994.57 1121.09 a8.4 8.4 0 1 0 16.8 0 a8.4 8.4 0 1 0 -16.8 0zM1921.82 1163.09 a8.4 8.4 0 1 0 16.8 0 a8.4 8.4 0 1 0 -16.8 0zM1849.07 1121.09 a8.4 8.4 0 1 0 16.8 0 a8.4 8.4 0 1 0 -16.8 0zM1849.07 1037.09 a8.4 8.4 0 1 0 16.8 0 a8.4 8.4 0 1 0 -16.8 0z" fill="rgba(65, 205, 255, 1)"></path><path d="M51.03 -50.88L118.58 -11.88L118.58 66.12L51.03 105.12L-16.52 66.12L-16.52 -11.88zM118.58 66.12L186.13 105.12L186.13 183.12L118.58 222.12L51.03 183.12L51.03 105.12zM118.58 534.12L186.13 573.12L186.13 651.12L118.58 690.12L51.03 651.12L51.03 573.12zM118.58 1002.12L186.13 1041.12L186.13 1119.12L118.58 1158.12L51.03 1119.12L51.03 1041.12zM186.13 -50.88L253.69 -11.88L253.69 66.12L186.13 105.12L118.58 66.12L118.58 -11.88zM253.69 768.12L321.24 807.12L321.24 885.12L253.69 924.12L186.13 885.12L186.13 807.12zM321.24 -50.88L388.79 -11.88L388.79 66.12L321.24 105.12L253.69 66.12L253.69 -11.88zM388.79 66.12L456.34 105.12L456.34 183.12L388.79 222.12L321.24 183.12L321.24 105.12zM388.79 1002.12L456.34 1041.12L456.34 1119.12L388.79 1158.12L321.24 1119.12L321.24 1041.12zM523.89 66.12L591.45 105.12L591.45 183.12L523.89 222.12L456.34 183.12L456.34 105.12zM523.89 300.12L591.45 339.12L591.45 417.12L523.89 456.12L456.34 417.12L456.34 339.12zM456.34 651.12L523.89 690.12L523.89 768.12L456.34 807.12L388.79 768.12L388.79 690.12zM523.89 768.12L591.45 807.12L591.45 885.12L523.89 924.12L456.34 885.12L456.34 807.12zM591.45 651.12L659 690.12L659 768.12L591.45 807.12L523.89 768.12L523.89 690.12zM659 768.12L726.55 807.12L726.55 885.12L659 924.12L591.45 885.12L591.45 807.12zM591.45 885.12L659 924.12L659 1002.12L591.45 1041.12L523.89 1002.12L523.89 924.12zM659 1002.12L726.55 1041.12L726.55 1119.12L659 1158.12L591.45 1119.12L591.45 1041.12zM726.55 183.12L794.1 222.12L794.1 300.12L726.55 339.12L659 300.12L659 222.12zM794.1 534.12L861.65 573.12L861.65 651.12L794.1 690.12L726.55 651.12L726.55 573.12zM726.55 885.12L794.1 924.12L794.1 1002.12L726.55 1041.12L659 1002.12L659 924.12zM794.1 1002.12L861.65 1041.12L861.65 1119.12L794.1 1158.12L726.55 1119.12L726.55 1041.12zM929.2 300.12L996.76 339.12L996.76 417.12L929.2 456.12L861.65 417.12L861.65 339.12zM861.65 417.12L929.2 456.12L929.2 534.12L861.65 573.12L794.1 534.12L794.1 456.12zM929.2 768.12L996.76 807.12L996.76 885.12L929.2 924.12L861.65 885.12L861.65 807.12zM861.65 885.12L929.2 924.12L929.2 1002.12L861.65 1041.12L794.1 1002.12L794.1 924.12zM929.2 1002.12L996.76 1041.12L996.76 1119.12L929.2 1158.12L861.65 1119.12L861.65 1041.12zM1064.31 534.12L1131.86 573.12L1131.86 651.12L1064.31 690.12L996.76 651.12L996.76 573.12zM1064.31 768.12L1131.86 807.12L1131.86 885.12L1064.31 924.12L996.76 885.12L996.76 807.12zM996.76 885.12L1064.31 924.12L1064.31 1002.12L996.76 1041.12L929.2 1002.12L929.2 924.12zM1064.31 1002.12L1131.86 1041.12L1131.86 1119.12L1064.31 1158.12L996.76 1119.12L996.76 1041.12zM1199.41 66.12L1266.96 105.12L1266.96 183.12L1199.41 222.12L1131.86 183.12L1131.86 105.12zM1131.86 183.12L1199.41 222.12L1199.41 300.12L1131.86 339.12L1064.31 300.12L1064.31 222.12zM1199.41 534.12L1266.96 573.12L1266.96 651.12L1199.41 690.12L1131.86 651.12L1131.86 573.12zM1131.86 651.12L1199.41 690.12L1199.41 768.12L1131.86 807.12L1064.31 768.12L1064.31 690.12zM1266.96 -50.88L1334.52 -11.88L1334.52 66.12L1266.96 105.12L1199.41 66.12L1199.41 -11.88zM1334.52 66.12L1402.07 105.12L1402.07 183.12L1334.52 222.12L1266.96 183.12L1266.96 105.12zM1266.96 417.12L1334.52 456.12L1334.52 534.12L1266.96 573.12L1199.41 534.12L1199.41 456.12zM1334.52 534.12L1402.07 573.12L1402.07 651.12L1334.52 690.12L1266.96 651.12L1266.96 573.12zM1402.07 183.12L1469.62 222.12L1469.62 300.12L1402.07 339.12L1334.52 300.12L1334.52 222.12zM1402.07 417.12L1469.62 456.12L1469.62 534.12L1402.07 573.12L1334.52 534.12L1334.52 456.12zM1402.07 885.12L1469.62 924.12L1469.62 1002.12L1402.07 1041.12L1334.52 1002.12L1334.52 924.12zM1469.62 1002.12L1537.17 1041.12L1537.17 1119.12L1469.62 1158.12L1402.07 1119.12L1402.07 1041.12zM1604.72 66.12L1672.28 105.12L1672.28 183.12L1604.72 222.12L1537.17 183.12L1537.17 105.12zM1537.17 417.12L1604.72 456.12L1604.72 534.12L1537.17 573.12L1469.62 534.12L1469.62 456.12zM1739.83 66.12L1807.38 105.12L1807.38 183.12L1739.83 222.12L1672.28 183.12L1672.28 105.12zM1672.28 417.12L1739.83 456.12L1739.83 534.12L1672.28 573.12L1604.72 534.12L1604.72 456.12zM1672.28 885.12L1739.83 924.12L1739.83 1002.12L1672.28 1041.12L1604.72 1002.12L1604.72 924.12zM1739.83 1002.12L1807.38 1041.12L1807.38 1119.12L1739.83 1158.12L1672.28 1119.12L1672.28 1041.12zM1807.38 -50.88L1874.93 -11.88L1874.93 66.12L1807.38 105.12L1739.83 66.12L1739.83 -11.88zM1874.93 66.12L1942.48 105.12L1942.48 183.12L1874.93 222.12L1807.38 183.12L1807.38 105.12zM1874.93 300.12L1942.48 339.12L1942.48 417.12L1874.93 456.12L1807.38 417.12L1807.38 339.12zM1942.48 183.12L2010.04 222.12L2010.04 300.12L1942.48 339.12L1874.93 300.12L1874.93 222.12zM1942.48 417.12L2010.04 456.12L2010.04 534.12L1942.48 573.12L1874.93 534.12L1874.93 456.12z" stroke="#03305d" stroke-width="2"></path><path d="M43.23 -50.88 a7.8 7.8 0 1 0 15.6 0 a7.8 7.8 0 1 0 -15.6 0zM110.78 -11.88 a7.8 7.8 0 1 0 15.6 0 a7.8 7.8 0 1 0 -15.6 0zM110.78 66.12 a7.8 7.8 0 1 0 15.6 0 a7.8 7.8 0 1 0 -15.6 0zM43.23 105.12 a7.8 7.8 0 1 0 15.6 0 a7.8 7.8 0 1 0 -15.6 0zM-24.32 66.12 a7.8 7.8 0 1 0 15.6 0 a7.8 7.8 0 1 0 -15.6 0zM-24.32 -11.88 a7.8 7.8 0 1 0 15.6 0 a7.8 7.8 0 1 0 -15.6 0zM178.33 105.12 a7.8 7.8 0 1 0 15.6 0 a7.8 7.8 0 1 0 -15.6 0zM178.33 183.12 a7.8 7.8 0 1 0 15.6 0 a7.8 7.8 0 1 0 -15.6 0zM110.78 222.12 a7.8 7.8 0 1 0 15.6 0 a7.8 7.8 0 1 0 -15.6 0zM43.23 183.12 a7.8 7.8 0 1 0 15.6 0 a7.8 7.8 0 1 0 -15.6 0zM110.78 534.12 a7.8 7.8 0 1 0 15.6 0 a7.8 7.8 0 1 0 -15.6 0zM178.33 573.12 a7.8 7.8 0 1 0 15.6 0 a7.8 7.8 0 1 0 -15.6 0zM178.33 651.12 a7.8 7.8 0 1 0 15.6 0 a7.8 7.8 0 1 0 -15.6 0zM110.78 690.12 a7.8 7.8 0 1 0 15.6 0 a7.8 7.8 0 1 0 -15.6 0zM43.23 651.12 a7.8 7.8 0 1 0 15.6 0 a7.8 7.8 0 1 0 -15.6 0zM43.23 573.12 a7.8 7.8 0 1 0 15.6 0 a7.8 7.8 0 1 0 -15.6 0zM110.78 1002.12 a7.8 7.8 0 1 0 15.6 0 a7.8 7.8 0 1 0 -15.6 0zM178.33 1041.12 a7.8 7.8 0 1 0 15.6 0 a7.8 7.8 0 1 0 -15.6 0zM178.33 1119.12 a7.8 7.8 0 1 0 15.6 0 a7.8 7.8 0 1 0 -15.6 0zM110.78 1158.12 a7.8 7.8 0 1 0 15.6 0 a7.8 7.8 0 1 0 -15.6 0zM43.23 1119.12 a7.8 7.8 0 1 0 15.6 0 a7.8 7.8 0 1 0 -15.6 0zM43.23 1041.12 a7.8 7.8 0 1 0 15.6 0 a7.8 7.8 0 1 0 -15.6 0zM178.33 -50.88 a7.8 7.8 0 1 0 15.6 0 a7.8 7.8 0 1 0 -15.6 0zM245.89 -11.88 a7.8 7.8 0 1 0 15.6 0 a7.8 7.8 0 1 0 -15.6 0zM245.89 66.12 a7.8 7.8 0 1 0 15.6 0 a7.8 7.8 0 1 0 -15.6 0zM245.89 768.12 a7.8 7.8 0 1 0 15.6 0 a7.8 7.8 0 1 0 -15.6 0zM313.44 807.12 a7.8 7.8 0 1 0 15.6 0 a7.8 7.8 0 1 0 -15.6 0zM313.44 885.12 a7.8 7.8 0 1 0 15.6 0 a7.8 7.8 0 1 0 -15.6 0zM245.89 924.12 a7.8 7.8 0 1 0 15.6 0 a7.8 7.8 0 1 0 -15.6 0zM178.33 885.12 a7.8 7.8 0 1 0 15.6 0 a7.8 7.8 0 1 0 -15.6 0zM178.33 807.12 a7.8 7.8 0 1 0 15.6 0 a7.8 7.8 0 1 0 -15.6 0zM313.44 -50.88 a7.8 7.8 0 1 0 15.6 0 a7.8 7.8 0 1 0 -15.6 0zM380.99 -11.88 a7.8 7.8 0 1 0 15.6 0 a7.8 7.8 0 1 0 -15.6 0zM380.99 66.12 a7.8 7.8 0 1 0 15.6 0 a7.8 7.8 0 1 0 -15.6 0zM313.44 105.12 a7.8 7.8 0 1 0 15.6 0 a7.8 7.8 0 1 0 -15.6 0zM448.54 105.12 a7.8 7.8 0 1 0 15.6 0 a7.8 7.8 0 1 0 -15.6 0zM448.54 183.12 a7.8 7.8 0 1 0 15.6 0 a7.8 7.8 0 1 0 -15.6 0zM380.99 222.12 a7.8 7.8 0 1 0 15.6 0 a7.8 7.8 0 1 0 -15.6 0zM313.44 183.12 a7.8 7.8 0 1 0 15.6 0 a7.8 7.8 0 1 0 -15.6 0zM380.99 1002.12 a7.8 7.8 0 1 0 15.6 0 a7.8 7.8 0 1 0 -15.6 0zM448.54 1041.12 a7.8 7.8 0 1 0 15.6 0 a7.8 7.8 0 1 0 -15.6 0zM448.54 1119.12 a7.8 7.8 0 1 0 15.6 0 a7.8 7.8 0 1 0 -15.6 0zM380.99 1158.12 a7.8 7.8 0 1 0 15.6 0 a7.8 7.8 0 1 0 -15.6 0zM313.44 1119.12 a7.8 7.8 0 1 0 15.6 0 a7.8 7.8 0 1 0 -15.6 0zM313.44 1041.12 a7.8 7.8 0 1 0 15.6 0 a7.8 7.8 0 1 0 -15.6 0zM516.09 66.12 a7.8 7.8 0 1 0 15.6 0 a7.8 7.8 0 1 0 -15.6 0zM583.65 105.12 a7.8 7.8 0 1 0 15.6 0 a7.8 7.8 0 1 0 -15.6 0zM583.65 183.12 a7.8 7.8 0 1 0 15.6 0 a7.8 7.8 0 1 0 -15.6 0zM516.09 222.12 a7.8 7.8 0 1 0 15.6 0 a7.8 7.8 0 1 0 -15.6 0zM516.09 300.12 a7.8 7.8 0 1 0 15.6 0 a7.8 7.8 0 1 0 -15.6 0zM583.65 339.12 a7.8 7.8 0 1 0 15.6 0 a7.8 7.8 0 1 0 -15.6 0zM583.65 417.12 a7.8 7.8 0 1 0 15.6 0 a7.8 7.8 0 1 0 -15.6 0zM516.09 456.12 a7.8 7.8 0 1 0 15.6 0 a7.8 7.8 0 1 0 -15.6 0zM448.54 417.12 a7.8 7.8 0 1 0 15.6 0 a7.8 7.8 0 1 0 -15.6 0zM448.54 339.12 a7.8 7.8 0 1 0 15.6 0 a7.8 7.8 0 1 0 -15.6 0zM448.54 651.12 a7.8 7.8 0 1 0 15.6 0 a7.8 7.8 0 1 0 -15.6 0zM516.09 690.12 a7.8 7.8 0 1 0 15.6 0 a7.8 7.8 0 1 0 -15.6 0zM516.09 768.12 a7.8 7.8 0 1 0 15.6 0 a7.8 7.8 0 1 0 -15.6 0zM448.54 807.12 a7.8 7.8 0 1 0 15.6 0 a7.8 7.8 0 1 0 -15.6 0zM380.99 768.12 a7.8 7.8 0 1 0 15.6 0 a7.8 7.8 0 1 0 -15.6 0zM380.99 690.12 a7.8 7.8 0 1 0 15.6 0 a7.8 7.8 0 1 0 -15.6 0zM583.65 807.12 a7.8 7.8 0 1 0 15.6 0 a7.8 7.8 0 1 0 -15.6 0zM583.65 885.12 a7.8 7.8 0 1 0 15.6 0 a7.8 7.8 0 1 0 -15.6 0zM516.09 924.12 a7.8 7.8 0 1 0 15.6 0 a7.8 7.8 0 1 0 -15.6 0zM448.54 885.12 a7.8 7.8 0 1 0 15.6 0 a7.8 7.8 0 1 0 -15.6 0zM583.65 651.12 a7.8 7.8 0 1 0 15.6 0 a7.8 7.8 0 1 0 -15.6 0zM651.2 690.12 a7.8 7.8 0 1 0 15.6 0 a7.8 7.8 0 1 0 -15.6 0zM651.2 768.12 a7.8 7.8 0 1 0 15.6 0 a7.8 7.8 0 1 0 -15.6 0zM718.75 807.12 a7.8 7.8 0 1 0 15.6 0 a7.8 7.8 0 1 0 -15.6 0zM718.75 885.12 a7.8 7.8 0 1 0 15.6 0 a7.8 7.8 0 1 0 -15.6 0zM651.2 924.12 a7.8 7.8 0 1 0 15.6 0 a7.8 7.8 0 1 0 -15.6 0zM651.2 1002.12 a7.8 7.8 0 1 0 15.6 0 a7.8 7.8 0 1 0 -15.6 0zM583.65 1041.12 a7.8 7.8 0 1 0 15.6 0 a7.8 7.8 0 1 0 -15.6 0zM516.09 1002.12 a7.8 7.8 0 1 0 15.6 0 a7.8 7.8 0 1 0 -15.6 0zM718.75 1041.12 a7.8 7.8 0 1 0 15.6 0 a7.8 7.8 0 1 0 -15.6 0zM718.75 1119.12 a7.8 7.8 0 1 0 15.6 0 a7.8 7.8 0 1 0 -15.6 0zM651.2 1158.12 a7.8 7.8 0 1 0 15.6 0 a7.8 7.8 0 1 0 -15.6 0zM583.65 1119.12 a7.8 7.8 0 1 0 15.6 0 a7.8 7.8 0 1 0 -15.6 0zM718.75 183.12 a7.8 7.8 0 1 0 15.6 0 a7.8 7.8 0 1 0 -15.6 0zM786.3 222.12 a7.8 7.8 0 1 0 15.6 0 a7.8 7.8 0 1 0 -15.6 0zM786.3 300.12 a7.8 7.8 0 1 0 15.6 0 a7.8 7.8 0 1 0 -15.6 0zM718.75 339.12 a7.8 7.8 0 1 0 15.6 0 a7.8 7.8 0 1 0 -15.6 0zM651.2 300.12 a7.8 7.8 0 1 0 15.6 0 a7.8 7.8 0 1 0 -15.6 0zM651.2 222.12 a7.8 7.8 0 1 0 15.6 0 a7.8 7.8 0 1 0 -15.6 0zM786.3 534.12 a7.8 7.8 0 1 0 15.6 0 a7.8 7.8 0 1 0 -15.6 0zM853.85 573.12 a7.8 7.8 0 1 0 15.6 0 a7.8 7.8 0 1 0 -15.6 0zM853.85 651.12 a7.8 7.8 0 1 0 15.6 0 a7.8 7.8 0 1 0 -15.6 0zM786.3 690.12 a7.8 7.8 0 1 0 15.6 0 a7.8 7.8 0 1 0 -15.6 0zM718.75 651.12 a7.8 7.8 0 1 0 15.6 0 a7.8 7.8 0 1 0 -15.6 0zM718.75 573.12 a7.8 7.8 0 1 0 15.6 0 a7.8 7.8 0 1 0 -15.6 0zM786.3 924.12 a7.8 7.8 0 1 0 15.6 0 a7.8 7.8 0 1 0 -15.6 0zM786.3 1002.12 a7.8 7.8 0 1 0 15.6 0 a7.8 7.8 0 1 0 -15.6 0zM853.85 1041.12 a7.8 7.8 0 1 0 15.6 0 a7.8 7.8 0 1 0 -15.6 0zM853.85 1119.12 a7.8 7.8 0 1 0 15.6 0 a7.8 7.8 0 1 0 -15.6 0zM786.3 1158.12 a7.8 7.8 0 1 0 15.6 0 a7.8 7.8 0 1 0 -15.6 0zM921.4 300.12 a7.8 7.8 0 1 0 15.6 0 a7.8 7.8 0 1 0 -15.6 0zM988.96 339.12 a7.8 7.8 0 1 0 15.6 0 a7.8 7.8 0 1 0 -15.6 0zM988.96 417.12 a7.8 7.8 0 1 0 15.6 0 a7.8 7.8 0 1 0 -15.6 0zM921.4 456.12 a7.8 7.8 0 1 0 15.6 0 a7.8 7.8 0 1 0 -15.6 0zM853.85 417.12 a7.8 7.8 0 1 0 15.6 0 a7.8 7.8 0 1 0 -15.6 0zM853.85 339.12 a7.8 7.8 0 1 0 15.6 0 a7.8 7.8 0 1 0 -15.6 0zM921.4 534.12 a7.8 7.8 0 1 0 15.6 0 a7.8 7.8 0 1 0 -15.6 0zM786.3 456.12 a7.8 7.8 0 1 0 15.6 0 a7.8 7.8 0 1 0 -15.6 0zM921.4 768.12 a7.8 7.8 0 1 0 15.6 0 a7.8 7.8 0 1 0 -15.6 0zM988.96 807.12 a7.8 7.8 0 1 0 15.6 0 a7.8 7.8 0 1 0 -15.6 0zM988.96 885.12 a7.8 7.8 0 1 0 15.6 0 a7.8 7.8 0 1 0 -15.6 0zM921.4 924.12 a7.8 7.8 0 1 0 15.6 0 a7.8 7.8 0 1 0 -15.6 0zM853.85 885.12 a7.8 7.8 0 1 0 15.6 0 a7.8 7.8 0 1 0 -15.6 0zM853.85 807.12 a7.8 7.8 0 1 0 15.6 0 a7.8 7.8 0 1 0 -15.6 0zM921.4 1002.12 a7.8 7.8 0 1 0 15.6 0 a7.8 7.8 0 1 0 -15.6 0zM988.96 1041.12 a7.8 7.8 0 1 0 15.6 0 a7.8 7.8 0 1 0 -15.6 0zM988.96 1119.12 a7.8 7.8 0 1 0 15.6 0 a7.8 7.8 0 1 0 -15.6 0zM921.4 1158.12 a7.8 7.8 0 1 0 15.6 0 a7.8 7.8 0 1 0 -15.6 0zM1056.51 534.12 a7.8 7.8 0 1 0 15.6 0 a7.8 7.8 0 1 0 -15.6 0zM1124.06 573.12 a7.8 7.8 0 1 0 15.6 0 a7.8 7.8 0 1 0 -15.6 0zM1124.06 651.12 a7.8 7.8 0 1 0 15.6 0 a7.8 7.8 0 1 0 -15.6 0zM1056.51 690.12 a7.8 7.8 0 1 0 15.6 0 a7.8 7.8 0 1 0 -15.6 0zM988.96 651.12 a7.8 7.8 0 1 0 15.6 0 a7.8 7.8 0 1 0 -15.6 0zM988.96 573.12 a7.8 7.8 0 1 0 15.6 0 a7.8 7.8 0 1 0 -15.6 0zM1056.51 768.12 a7.8 7.8 0 1 0 15.6 0 a7.8 7.8 0 1 0 -15.6 0zM1124.06 807.12 a7.8 7.8 0 1 0 15.6 0 a7.8 7.8 0 1 0 -15.6 0zM1124.06 885.12 a7.8 7.8 0 1 0 15.6 0 a7.8 7.8 0 1 0 -15.6 0zM1056.51 924.12 a7.8 7.8 0 1 0 15.6 0 a7.8 7.8 0 1 0 -15.6 0zM1056.51 1002.12 a7.8 7.8 0 1 0 15.6 0 a7.8 7.8 0 1 0 -15.6 0zM1124.06 1041.12 a7.8 7.8 0 1 0 15.6 0 a7.8 7.8 0 1 0 -15.6 0zM1124.06 1119.12 a7.8 7.8 0 1 0 15.6 0 a7.8 7.8 0 1 0 -15.6 0zM1056.51 1158.12 a7.8 7.8 0 1 0 15.6 0 a7.8 7.8 0 1 0 -15.6 0zM1191.61 66.12 a7.8 7.8 0 1 0 15.6 0 a7.8 7.8 0 1 0 -15.6 0zM1259.16 105.12 a7.8 7.8 0 1 0 15.6 0 a7.8 7.8 0 1 0 -15.6 0zM1259.16 183.12 a7.8 7.8 0 1 0 15.6 0 a7.8 7.8 0 1 0 -15.6 0zM1191.61 222.12 a7.8 7.8 0 1 0 15.6 0 a7.8 7.8 0 1 0 -15.6 0zM1124.06 183.12 a7.8 7.8 0 1 0 15.6 0 a7.8 7.8 0 1 0 -15.6 0zM1124.06 105.12 a7.8 7.8 0 1 0 15.6 0 a7.8 7.8 0 1 0 -15.6 0zM1191.61 300.12 a7.8 7.8 0 1 0 15.6 0 a7.8 7.8 0 1 0 -15.6 0zM1124.06 339.12 a7.8 7.8 0 1 0 15.6 0 a7.8 7.8 0 1 0 -15.6 0zM1056.51 300.12 a7.8 7.8 0 1 0 15.6 0 a7.8 7.8 0 1 0 -15.6 0zM1056.51 222.12 a7.8 7.8 0 1 0 15.6 0 a7.8 7.8 0 1 0 -15.6 0zM1191.61 534.12 a7.8 7.8 0 1 0 15.6 0 a7.8 7.8 0 1 0 -15.6 0zM1259.16 573.12 a7.8 7.8 0 1 0 15.6 0 a7.8 7.8 0 1 0 -15.6 0zM1259.16 651.12 a7.8 7.8 0 1 0 15.6 0 a7.8 7.8 0 1 0 -15.6 0zM1191.61 690.12 a7.8 7.8 0 1 0 15.6 0 a7.8 7.8 0 1 0 -15.6 0zM1191.61 768.12 a7.8 7.8 0 1 0 15.6 0 a7.8 7.8 0 1 0 -15.6 0zM1259.16 -50.88 a7.8 7.8 0 1 0 15.6 0 a7.8 7.8 0 1 0 -15.6 0zM1326.72 -11.88 a7.8 7.8 0 1 0 15.6 0 a7.8 7.8 0 1 0 -15.6 0zM1326.72 66.12 a7.8 7.8 0 1 0 15.6 0 a7.8 7.8 0 1 0 -15.6 0zM1191.61 -11.88 a7.8 7.8 0 1 0 15.6 0 a7.8 7.8 0 1 0 -15.6 0zM1394.27 105.12 a7.8 7.8 0 1 0 15.6 0 a7.8 7.8 0 1 0 -15.6 0zM1394.27 183.12 a7.8 7.8 0 1 0 15.6 0 a7.8 7.8 0 1 0 -15.6 0zM1326.72 222.12 a7.8 7.8 0 1 0 15.6 0 a7.8 7.8 0 1 0 -15.6 0zM1259.16 417.12 a7.8 7.8 0 1 0 15.6 0 a7.8 7.8 0 1 0 -15.6 0zM1326.72 456.12 a7.8 7.8 0 1 0 15.6 0 a7.8 7.8 0 1 0 -15.6 0zM1326.72 534.12 a7.8 7.8 0 1 0 15.6 0 a7.8 7.8 0 1 0 -15.6 0zM1191.61 456.12 a7.8 7.8 0 1 0 15.6 0 a7.8 7.8 0 1 0 -15.6 0zM1394.27 573.12 a7.8 7.8 0 1 0 15.6 0 a7.8 7.8 0 1 0 -15.6 0zM1394.27 651.12 a7.8 7.8 0 1 0 15.6 0 a7.8 7.8 0 1 0 -15.6 0zM1326.72 690.12 a7.8 7.8 0 1 0 15.6 0 a7.8 7.8 0 1 0 -15.6 0zM1461.82 222.12 a7.8 7.8 0 1 0 15.6 0 a7.8 7.8 0 1 0 -15.6 0zM1461.82 300.12 a7.8 7.8 0 1 0 15.6 0 a7.8 7.8 0 1 0 -15.6 0zM1394.27 339.12 a7.8 7.8 0 1 0 15.6 0 a7.8 7.8 0 1 0 -15.6 0zM1326.72 300.12 a7.8 7.8 0 1 0 15.6 0 a7.8 7.8 0 1 0 -15.6 0zM1394.27 417.12 a7.8 7.8 0 1 0 15.6 0 a7.8 7.8 0 1 0 -15.6 0zM1461.82 456.12 a7.8 7.8 0 1 0 15.6 0 a7.8 7.8 0 1 0 -15.6 0zM1461.82 534.12 a7.8 7.8 0 1 0 15.6 0 a7.8 7.8 0 1 0 -15.6 0zM1394.27 885.12 a7.8 7.8 0 1 0 15.6 0 a7.8 7.8 0 1 0 -15.6 0zM1461.82 924.12 a7.8 7.8 0 1 0 15.6 0 a7.8 7.8 0 1 0 -15.6 0zM1461.82 1002.12 a7.8 7.8 0 1 0 15.6 0 a7.8 7.8 0 1 0 -15.6 0zM1394.27 1041.12 a7.8 7.8 0 1 0 15.6 0 a7.8 7.8 0 1 0 -15.6 0zM1326.72 1002.12 a7.8 7.8 0 1 0 15.6 0 a7.8 7.8 0 1 0 -15.6 0zM1326.72 924.12 a7.8 7.8 0 1 0 15.6 0 a7.8 7.8 0 1 0 -15.6 0zM1529.37 1041.12 a7.8 7.8 0 1 0 15.6 0 a7.8 7.8 0 1 0 -15.6 0zM1529.37 1119.12 a7.8 7.8 0 1 0 15.6 0 a7.8 7.8 0 1 0 -15.6 0zM1461.82 1158.12 a7.8 7.8 0 1 0 15.6 0 a7.8 7.8 0 1 0 -15.6 0zM1394.27 1119.12 a7.8 7.8 0 1 0 15.6 0 a7.8 7.8 0 1 0 -15.6 0zM1596.92 66.12 a7.8 7.8 0 1 0 15.6 0 a7.8 7.8 0 1 0 -15.6 0zM1664.48 105.12 a7.8 7.8 0 1 0 15.6 0 a7.8 7.8 0 1 0 -15.6 0zM1664.48 183.12 a7.8 7.8 0 1 0 15.6 0 a7.8 7.8 0 1 0 -15.6 0zM1596.92 222.12 a7.8 7.8 0 1 0 15.6 0 a7.8 7.8 0 1 0 -15.6 0zM1529.37 183.12 a7.8 7.8 0 1 0 15.6 0 a7.8 7.8 0 1 0 -15.6 0zM1529.37 105.12 a7.8 7.8 0 1 0 15.6 0 a7.8 7.8 0 1 0 -15.6 0zM1529.37 417.12 a7.8 7.8 0 1 0 15.6 0 a7.8 7.8 0 1 0 -15.6 0zM1596.92 456.12 a7.8 7.8 0 1 0 15.6 0 a7.8 7.8 0 1 0 -15.6 0zM1596.92 534.12 a7.8 7.8 0 1 0 15.6 0 a7.8 7.8 0 1 0 -15.6 0zM1529.37 573.12 a7.8 7.8 0 1 0 15.6 0 a7.8 7.8 0 1 0 -15.6 0zM1732.03 66.12 a7.8 7.8 0 1 0 15.6 0 a7.8 7.8 0 1 0 -15.6 0zM1799.58 105.12 a7.8 7.8 0 1 0 15.6 0 a7.8 7.8 0 1 0 -15.6 0zM1799.58 183.12 a7.8 7.8 0 1 0 15.6 0 a7.8 7.8 0 1 0 -15.6 0zM1732.03 222.12 a7.8 7.8 0 1 0 15.6 0 a7.8 7.8 0 1 0 -15.6 0zM1664.48 417.12 a7.8 7.8 0 1 0 15.6 0 a7.8 7.8 0 1 0 -15.6 0zM1732.03 456.12 a7.8 7.8 0 1 0 15.6 0 a7.8 7.8 0 1 0 -15.6 0zM1732.03 534.12 a7.8 7.8 0 1 0 15.6 0 a7.8 7.8 0 1 0 -15.6 0zM1664.48 573.12 a7.8 7.8 0 1 0 15.6 0 a7.8 7.8 0 1 0 -15.6 0zM1664.48 885.12 a7.8 7.8 0 1 0 15.6 0 a7.8 7.8 0 1 0 -15.6 0zM1732.03 924.12 a7.8 7.8 0 1 0 15.6 0 a7.8 7.8 0 1 0 -15.6 0zM1732.03 1002.12 a7.8 7.8 0 1 0 15.6 0 a7.8 7.8 0 1 0 -15.6 0zM1664.48 1041.12 a7.8 7.8 0 1 0 15.6 0 a7.8 7.8 0 1 0 -15.6 0zM1596.92 1002.12 a7.8 7.8 0 1 0 15.6 0 a7.8 7.8 0 1 0 -15.6 0zM1596.92 924.12 a7.8 7.8 0 1 0 15.6 0 a7.8 7.8 0 1 0 -15.6 0zM1799.58 1041.12 a7.8 7.8 0 1 0 15.6 0 a7.8 7.8 0 1 0 -15.6 0zM1799.58 1119.12 a7.8 7.8 0 1 0 15.6 0 a7.8 7.8 0 1 0 -15.6 0zM1732.03 1158.12 a7.8 7.8 0 1 0 15.6 0 a7.8 7.8 0 1 0 -15.6 0zM1664.48 1119.12 a7.8 7.8 0 1 0 15.6 0 a7.8 7.8 0 1 0 -15.6 0zM1799.58 -50.88 a7.8 7.8 0 1 0 15.6 0 a7.8 7.8 0 1 0 -15.6 0zM1867.13 -11.88 a7.8 7.8 0 1 0 15.6 0 a7.8 7.8 0 1 0 -15.6 0zM1867.13 66.12 a7.8 7.8 0 1 0 15.6 0 a7.8 7.8 0 1 0 -15.6 0zM1732.03 -11.88 a7.8 7.8 0 1 0 15.6 0 a7.8 7.8 0 1 0 -15.6 0zM1934.68 105.12 a7.8 7.8 0 1 0 15.6 0 a7.8 7.8 0 1 0 -15.6 0zM1934.68 183.12 a7.8 7.8 0 1 0 15.6 0 a7.8 7.8 0 1 0 -15.6 0zM1867.13 222.12 a7.8 7.8 0 1 0 15.6 0 a7.8 7.8 0 1 0 -15.6 0zM1867.13 300.12 a7.8 7.8 0 1 0 15.6 0 a7.8 7.8 0 1 0 -15.6 0zM1934.68 339.12 a7.8 7.8 0 1 0 15.6 0 a7.8 7.8 0 1 0 -15.6 0zM1934.68 417.12 a7.8 7.8 0 1 0 15.6 0 a7.8 7.8 0 1 0 -15.6 0zM1867.13 456.12 a7.8 7.8 0 1 0 15.6 0 a7.8 7.8 0 1 0 -15.6 0zM1799.58 417.12 a7.8 7.8 0 1 0 15.6 0 a7.8 7.8 0 1 0 -15.6 0zM1799.58 339.12 a7.8 7.8 0 1 0 15.6 0 a7.8 7.8 0 1 0 -15.6 0zM2002.24 222.12 a7.8 7.8 0 1 0 15.6 0 a7.8 7.8 0 1 0 -15.6 0zM2002.24 300.12 a7.8 7.8 0 1 0 15.6 0 a7.8 7.8 0 1 0 -15.6 0zM2002.24 456.12 a7.8 7.8 0 1 0 15.6 0 a7.8 7.8 0 1 0 -15.6 0zM2002.24 534.12 a7.8 7.8 0 1 0 15.6 0 a7.8 7.8 0 1 0 -15.6 0zM1934.68 573.12 a7.8 7.8 0 1 0 15.6 0 a7.8 7.8 0 1 0 -15.6 0zM1867.13 534.12 a7.8 7.8 0 1 0 15.6 0 a7.8 7.8 0 1 0 -15.6 0z" fill="#03305d"></path><path d="M92.65 -93.01L197.44 -32.51L197.44 88.49L92.65 148.99L-12.14 88.49L-12.14 -32.51zM197.44 451.49L302.23 511.99L302.23 632.99L197.44 693.49L92.65 632.99L92.65 511.99zM92.65 632.99L197.44 693.49L197.44 814.49L92.65 874.99L-12.14 814.49L-12.14 693.49zM407.03 88.49L511.82 148.99L511.82 269.99L407.03 330.49L302.23 269.99L302.23 148.99zM407.03 451.49L511.82 511.99L511.82 632.99L407.03 693.49L302.23 632.99L302.23 511.99zM302.23 995.99L407.03 1056.49L407.03 1177.49L302.23 1237.99L197.44 1177.49L197.44 1056.49zM511.82 -93.01L616.61 -32.51L616.61 88.49L511.82 148.99L407.03 88.49L407.03 -32.51zM616.61 88.49L721.4 148.99L721.4 269.99L616.61 330.49L511.82 269.99L511.82 148.99zM721.4 -93.01L826.19 -32.51L826.19 88.49L721.4 148.99L616.61 88.49L616.61 -32.51zM826.19 814.49L930.99 874.99L930.99 995.99L826.19 1056.49L721.4 995.99L721.4 874.99zM930.99 -93.01L1035.78 -32.51L1035.78 88.49L930.99 148.99L826.19 88.49L826.19 -32.51zM1035.78 451.49L1140.57 511.99L1140.57 632.99L1035.78 693.49L930.99 632.99L930.99 511.99zM1140.57 -93.01L1245.36 -32.51L1245.36 88.49L1140.57 148.99L1035.78 88.49L1035.78 -32.51zM1140.57 632.99L1245.36 693.49L1245.36 814.49L1140.57 874.99L1035.78 814.49L1035.78 693.49zM1140.57 995.99L1245.36 1056.49L1245.36 1177.49L1140.57 1237.99L1035.78 1177.49L1035.78 1056.49zM1350.15 269.99L1454.95 330.49L1454.95 451.49L1350.15 511.99L1245.36 451.49L1245.36 330.49zM1559.74 -93.01L1664.53 -32.51L1664.53 88.49L1559.74 148.99L1454.95 88.49L1454.95 -32.51zM1664.53 88.49L1769.32 148.99L1769.32 269.99L1664.53 330.49L1559.74 269.99L1559.74 148.99zM1874.11 451.49L1978.91 511.99L1978.91 632.99L1874.11 693.49L1769.32 632.99L1769.32 511.99zM1769.32 632.99L1874.11 693.49L1874.11 814.49L1769.32 874.99L1664.53 814.49L1664.53 693.49zM1874.11 814.49L1978.91 874.99L1978.91 995.99L1874.11 1056.49L1769.32 995.99L1769.32 874.99zM1769.32 995.99L1874.11 1056.49L1874.11 1177.49L1769.32 1237.99L1664.53 1177.49L1664.53 1056.49zM2083.7 88.49L2188.49 148.99L2188.49 269.99L2083.7 330.49L1978.91 269.99L1978.91 148.99zM1978.91 995.99L2083.7 1056.49L2083.7 1177.49L1978.91 1237.99L1874.11 1177.49L1874.11 1056.49z" stroke="rgba(6, 80, 156, 0.93)" stroke-width="2"></path></g><defs><mask id="SvgjsMask1001"><rect width="1920" height="1080" fill="#ffffff"></rect></mask></defs></svg>