<svg xmlns="http://www.w3.org/2000/svg" version="1.1" xmlns:xlink="http://www.w3.org/1999/xlink" xmlns:svgjs="http://svgjs.com/svgjs" width="1920" height="1020" preserveAspectRatio="none" viewBox="0 0 1920 1020"><g mask="url(&quot;#SvgjsMask1434&quot;)" fill="none"><g transform="translate(19.2, 20.4)" stroke-linecap="round"><path d="M508.5 484.055 L508.5 535.955" stroke-width="32.25" stroke="rgba(123, 0, 255, 1)"></path><path d="M551.5 436.625 L551.5 468.875" stroke-width="32.25" stroke="rgba(123, 0, 255, 1)"></path><path d="M551.5 517.25 L551.5 583.375" stroke-width="32.25" stroke="rgba(255, 136, 55, 1)"></path><path d="M594.5 385.445 L594.5 482.195" stroke-width="32.25" stroke="rgba(255, 136, 55, 1)"></path><path d="M594.5 530.5699999999999 L594.5 634.545" stroke-width="32.25" stroke="rgba(123, 0, 255, 1)"></path><path d="M637.5 462.615 L637.5 557.385" stroke-width="32.25" stroke="rgba(123, 0, 255, 1)"></path><path d="M680.5 387.785 L680.5 452.285" stroke-width="32.25" stroke="rgba(123, 0, 255, 1)"></path><path d="M680.5 500.66 L680.5 632.215" stroke-width="32.25" stroke="rgba(123, 0, 255, 1)"></path><path d="M723.5 327.735 L723.5 692.265" stroke-width="32.25" stroke="rgba(255, 136, 55, 1)"></path><path d="M766.5 369.895 L766.5 498.895" stroke-width="32.25" stroke="rgba(123, 0, 255, 1)"></path><path d="M766.5 547.27 L766.5 650.105" stroke-width="32.25" stroke="rgba(255, 136, 55, 1)"></path><path d="M809.5 392.025 L809.5 456.525" stroke-width="32.25" stroke="rgba(255, 136, 55, 1)"></path><path d="M809.5 504.9 L809.5 537.15" stroke-width="32.25" stroke="rgba(123, 0, 255, 1)"></path><path d="M809.5 585.525 L809.5 627.975" stroke-width="32.25" stroke="rgba(123, 0, 255, 1)"></path><path d="M852.5 343.005 L852.5 504.255" stroke-width="32.25" stroke="rgba(123, 0, 255, 1)"></path><path d="M852.5 552.63 L852.5 584.88" stroke-width="32.25" stroke="rgba(255, 136, 55, 1)"></path><path d="M852.5 633.255 L852.5 677.005" stroke-width="32.25" stroke="rgba(123, 0, 255, 1)"></path><path d="M895.5 314.965 L895.5 411.715" stroke-width="32.25" stroke="rgba(255, 136, 55, 1)"></path><path d="M895.5 460.09 L895.5 705.035" stroke-width="32.25" stroke="rgba(123, 0, 255, 1)"></path><path d="M938.5 390.445 L938.5 422.695" stroke-width="32.25" stroke="rgba(123, 0, 255, 1)"></path><path d="M938.5 471.07 L938.5 535.5699999999999" stroke-width="32.25" stroke="rgba(123, 0, 255, 1)"></path><path d="M938.5 583.9449999999999 L938.5 629.555" stroke-width="32.25" stroke="rgba(123, 0, 255, 1)"></path><path d="M981.5 469.755 L981.5 550.255" stroke-width="32.25" stroke="rgba(123, 0, 255, 1)"></path><path d="M1024.5 276.565 L1024.5 405.565" stroke-width="32.25" stroke="rgba(123, 0, 255, 1)"></path><path d="M1024.5 453.94 L1024.5 743.435" stroke-width="32.25" stroke="rgba(255, 136, 55, 1)"></path><path d="M1067.5 387.875 L1067.5 484.625" stroke-width="32.25" stroke="rgba(123, 0, 255, 1)"></path><path d="M1067.5 533 L1067.5 632.125" stroke-width="32.25" stroke="rgba(123, 0, 255, 1)"></path><path d="M1110.5 445.865 L1110.5 574.135" stroke-width="32.25" stroke="rgba(123, 0, 255, 1)"></path><path d="M1153.5 281.425 L1153.5 539.425" stroke-width="32.25" stroke="rgba(123, 0, 255, 1)"></path><path d="M1153.5 587.8 L1153.5 652.3" stroke-width="32.25" stroke="rgba(123, 0, 255, 1)"></path><path d="M1153.5 700.675 L1153.5 738.575" stroke-width="32.25" stroke="rgba(255, 136, 55, 1)"></path><path d="M1196.5 344.765 L1196.5 675.235" stroke-width="32.25" stroke="rgba(255, 136, 55, 1)"></path><path d="M1239.5 287.125 L1239.5 416.125" stroke-width="32.25" stroke="rgba(123, 0, 255, 1)"></path><path d="M1239.5 464.5 L1239.5 561.25" stroke-width="32.25" stroke="rgba(255, 136, 55, 1)"></path><path d="M1239.5 609.625 L1239.5 732.875" stroke-width="32.25" stroke="rgba(255, 136, 55, 1)"></path><path d="M1282.5 374.155 L1282.5 503.155" stroke-width="32.25" stroke="rgba(123, 0, 255, 1)"></path><path d="M1282.5 551.53 L1282.5 645.845" stroke-width="32.25" stroke="rgba(255, 136, 55, 1)"></path><path d="M1325.5 421.095 L1325.5 485.595" stroke-width="32.25" stroke="rgba(123, 0, 255, 1)"></path><path d="M1325.5 533.97 L1325.5 598.905" stroke-width="32.25" stroke="rgba(123, 0, 255, 1)"></path><path d="M1368.5 410.205 L1368.5 442.455" stroke-width="32.25" stroke="rgba(255, 136, 55, 1)"></path><path d="M1368.5 490.83 L1368.5 523.0799999999999" stroke-width="32.25" stroke="rgba(123, 0, 255, 1)"></path><path d="M1368.5 571.4549999999999 L1368.5 609.785" stroke-width="32.25" stroke="rgba(255, 136, 55, 1)"></path><path d="M1411.5 453.595 L1411.5 566.405" stroke-width="32.25" stroke="rgba(255, 136, 55, 1)"></path></g></g><defs><mask id="SvgjsMask1434"><rect width="1920" height="1020" fill="#ffffff"></rect></mask></defs></svg>