<svg xmlns="http://www.w3.org/2000/svg" version="1.1" xmlns:xlink="http://www.w3.org/1999/xlink" xmlns:svgjs="http://svgjs.com/svgjs" width="1920" height="1080" preserveAspectRatio="none" viewBox="0 0 1920 1080"><g mask="url(&quot;#SvgjsMask1079&quot;)" fill="none"><path d="M -1411.552986252162,811 C -1219.55,702.2 -835.55,287.6 -451.5529862521621,267 C -67.55,246.4 124.45,655 508.4470137478379,708 C 892.45,761 1186.14,542.4 1468.447013747838,532 C 1750.76,521.6 1829.69,631.2 1920,656" stroke="rgba(51, 121, 194, 0.58)" stroke-width="2"></path><path d="M -233.32287306517992,312 C -41.32,360.4 342.68,554.6 726.6771269348201,554 C 1110.68,553.4 1302.68,304.4 1686.67712693482,309 C 2070.68,313.6 2600.01,575.4 2646.67712693482,577 C 2693.34,578.6 2065.34,369 1920,317" stroke="rgba(51, 121, 194, 0.58)" stroke-width="2"></path><path d="M -316.5824525354358,792 C -124.58,699.6 259.42,379.6 643.4175474645642,330 C 1027.42,280.4 1219.42,503.8 1603.4175474645642,544 C 1987.42,584.2 2500.1,516.2 2563.4175474645644,531 C 2626.73,545.8 2048.68,600.6 1920,618" stroke="rgba(51, 121, 194, 0.58)" stroke-width="2"></path><path d="M -542.2546706788569,704 C -350.25,640.8 33.75,366.6 417.7453293211431,388 C 801.75,409.4 993.75,781.8 1377.7453293211431,811 C 1761.75,840.2 2229.29,549.4 2337.745329321143,534 C 2446.2,518.6 2003.55,694 1920,734" stroke="rgba(51, 121, 194, 0.58)" stroke-width="2"></path></g><defs><mask id="SvgjsMask1079"><rect width="1920" height="1080" fill="#ffffff"></rect></mask></defs></svg>